<svg id="f6c78282-1668-4fe4-8512-f5a811be4cc4" data-name="Capa 1" xmlns="http://www.w3.org/2000/svg" viewBox="0 0 101.2 69"><defs><style>.bf8cf0d7-a2b5-4034-a048-a868e9bb3068{fill:#981914;}</style></defs><title>Propuesta de Diseño</title><path class="bf8cf0d7-a2b5-4034-a048-a868e9bb3068" d="M81.2,2.1H9.4A6.3,6.3,0,0,0,3.1,8.4V58.9a6.3,6.3,0,0,0,6.3,6.3H81.2a6.3,6.3,0,0,0,6.3-6.3V8.4A6.3,6.3,0,0,0,81.2,2.1Zm4.4,56.8a4.4,4.4,0,0,1-4.4,4.4H9.4a4.4,4.4,0,0,1-4.3-4.4V8.4A4.4,4.4,0,0,1,9.4,4H81.2a4.4,4.4,0,0,1,4.4,4.4Z"/><rect class="bf8cf0d7-a2b5-4034-a048-a868e9bb3068" x="5.4" y="52.8" width="79.8" height="1.96"/><path class="bf8cf0d7-a2b5-4034-a048-a868e9bb3068" d="M61.7,38.2V19.9h-.1v-.6L46.4,10.5a2,2,0,0,0-2.2,0L29.5,19.1l-.5.3v.5h0V38.2l16.3,9.6ZM46.3,44.9V29.5h0l13.4-7.9V37.1ZM45.2,12.1h.3l13.2,7.8L45.3,27.8,31.9,19.9ZM30.9,21.6l13.4,7.9h.1V44.9L30.9,37.1Z"/></svg>