<svg id="e0dfc9d3-f755-4ba6-9347-46bc2c83b460" data-name="Capa 1" xmlns="http://www.w3.org/2000/svg" viewBox="0 0 101.2 69"><defs><style>.f6ea2602-4924-4bbf-9b31-9ba276bc6c2b{fill:#981914;}</style></defs><title>Propuesta de Diseño</title><path class="f6ea2602-4924-4bbf-9b31-9ba276bc6c2b" d="M70.5,20.7h0L47.5,7.3a2.6,2.6,0,0,0-2.9,0L22.1,20.4l-.5.3h0V49L46,63.3,70.5,49ZM45.6,9a.7.7,0,0,1,.9,0L67.6,21.3,46.3,33.8a.5.5,0,0,1-.5,0L24.5,21.3Zm-22,14L44.8,35.4l.3.2V60.5L23.5,47.9ZM47,60.5V35.6l.3-.2L68.5,23V47.9Z"/><polygon class="f6ea2602-4924-4bbf-9b31-9ba276bc6c2b" points="83.1 29.8 82.4 30.6 86.1 34 82.4 37.5 83.1 38.2 87.6 34 83.1 29.8"/><polygon class="f6ea2602-4924-4bbf-9b31-9ba276bc6c2b" points="70.2 3.5 70 8.5 71 8.6 71.2 2.4 65.1 2.6 65.1 3.6 70.2 3.5"/><polygon class="f6ea2602-4924-4bbf-9b31-9ba276bc6c2b" points="70.8 59.8 70.9 64.8 65.9 64.7 65.9 65.7 72 65.9 71.8 59.8 70.8 59.8"/><polygon class="f6ea2602-4924-4bbf-9b31-9ba276bc6c2b" points="8.4 30.1 3.8 34.3 8.4 38.5 9.1 37.7 5.4 34.3 9.1 30.8 8.4 30.1"/><polygon class="f6ea2602-4924-4bbf-9b31-9ba276bc6c2b" points="21.3 64.8 21.4 59.8 20.4 59.8 20.2 65.9 26.3 65.7 26.3 64.7 21.3 64.8"/><polygon class="f6ea2602-4924-4bbf-9b31-9ba276bc6c2b" points="20.5 3.5 25.5 3.7 25.6 2.6 19.4 2.4 19.6 8.6 20.6 8.5 20.5 3.5"/></svg>