<svg id="b43ac7e0-16b1-47e7-8519-7fb43adaa964" data-name="Capa 1" xmlns="http://www.w3.org/2000/svg" viewBox="0 0 10.1 10.2"><defs><style>.f5100839-5d47-4bcb-8090-2cb7b12d732d{fill:#c88787;}</style></defs><title>Propuesta de Diseño</title><path class="f5100839-5d47-4bcb-8090-2cb7b12d732d" d="M0,10.2c.3-.9.5-1.5.7-2.3a1.1,1.1,0,0,0,0-.8,4.9,4.9,0,0,1,1-5.7A5,5,0,0,1,7.5.6,4.9,4.9,0,0,1,6,9.8a4.8,4.8,0,0,1-2.9-.3H2.4ZM1.2,8.8h.2l.9-.3a1.1,1.1,0,0,1,1.1.1A3.5,3.5,0,0,0,5.9,9,4.2,4.2,0,0,0,9.3,4.2,4.3,4.3,0,0,0,4.1.9,4.1,4.1,0,0,0,1.2,6.2C1.5,7.1,1.9,7.9,1.2,8.8Z"/><path class="f5100839-5d47-4bcb-8090-2cb7b12d732d" d="M6.5,7.3a3.9,3.9,0,0,1-1.4-.5A4.9,4.9,0,0,1,2.9,4.5,1.2,1.2,0,0,1,3.1,3c.3-.5.8-.4,1,.1a1.4,1.4,0,0,1,.2.6c0,.1.1.4-.1.5a.5.5,0,0,0,.1.8L5.5,6c.2.2.5.2.6-.1s.5-.4.9-.2h.1l.6.5a1.6,1.6,0,0,1-.6.8Z"/></svg>