<svg id="b331e044-4af0-4a7d-8481-f1a41a7913cc" data-name="Capa 1" xmlns="http://www.w3.org/2000/svg" viewBox="0 0 101.2 69"><defs><style>.ed99da30-979d-438c-9c66-ef34bedd24fd{fill:#981914;}</style></defs><title>Propuesta de Diseño</title><path class="ed99da30-979d-438c-9c66-ef34bedd24fd" d="M86.2,50.6,84.8,52l6,5.6H20.3a5.9,5.9,0,0,0,.2-1.3,8.8,8.8,0,0,0-3.6-7l12.8-20a6.3,6.3,0,0,0,1.9.3,5.9,5.9,0,0,0,4-1.5L52.2,40.6a6,6,0,0,0-.8,2.9,6.3,6.3,0,1,0,12.5,0,6.1,6.1,0,0,0-2-4.5l16-21.3a8,8,0,0,0,4.1,1,8.5,8.5,0,0,0,8.5-8.6,8.6,8.6,0,1,0-14.2,6.5L60.2,37.9a5.4,5.4,0,0,0-2.5-.6,6,6,0,0,0-4.3,1.8L36.9,26.7a6.3,6.3,0,0,0,.9-3.3,6.2,6.2,0,1,0-12.4,0,6,6,0,0,0,2.6,5l-12.8,20a7.5,7.5,0,0,0-3.3-.7h-.7V7.7l5.6,6,1.4-1.3-8-8.6-8,8.6,1.5,1.3,5.6-6V48.1a8.6,8.6,0,0,0,2.6,16.8,8.7,8.7,0,0,0,7.9-5.3h71l-6,5.5,1.4,1.5,8.6-8ZM75.3,10.1A6.7,6.7,0,1,1,82,16.8,6.7,6.7,0,0,1,75.3,10.1ZM57.7,39.3a4.3,4.3,0,0,1,0,8.5,4.3,4.3,0,1,1,0-8.5ZM31.6,19.1a4.3,4.3,0,0,1,4.3,4.3,4.3,4.3,0,1,1-8.5,0A4.2,4.2,0,0,1,31.6,19.1ZM11.9,62.9a6.6,6.6,0,0,1-6.7-6.6,6.7,6.7,0,1,1,13.3,0A6.6,6.6,0,0,1,11.9,62.9Z"/></svg>