<svg id="b7b60183-6018-4c3c-8afe-5b13ba1f66b0" data-name="Capa 1" xmlns="http://www.w3.org/2000/svg" viewBox="0 0 101.2 69"><defs><style>.b7e3a5cf-0c68-454d-b53b-44663dd5bf9f{fill:#981914;}</style></defs><title>Propuesta de Diseño</title><path class="b7e3a5cf-0c68-454d-b53b-44663dd5bf9f" d="M85.6,28.3a4.3,4.3,0,0,0-2.5.7L63.9,9.8a5,5,0,0,0,.8-2.7A4.9,4.9,0,0,0,55,6.5H38.1a4.9,4.9,0,0,0-9.7.6,4.8,4.8,0,0,0,.9,2.9L10.1,29.2a4.8,4.8,0,0,0-2.9-.9,4.9,4.9,0,0,0,0,9.8,4.6,4.6,0,0,0,2.1-.5L29.1,57.4a5.9,5.9,0,0,0-.7,2.6,4.9,4.9,0,0,0,4.9,4.9A4.7,4.7,0,0,0,38,61.1H55A4.9,4.9,0,0,0,64.7,60a4.8,4.8,0,0,0-.7-2.4L83.9,37.7a4.7,4.7,0,0,0,1.7.4,4.9,4.9,0,1,0,0-9.8Zm-4.8,4H64.6A5,5,0,0,0,57.2,29l-9.1-9.2L56.9,11a4.8,4.8,0,0,0,2.9,1,5,5,0,0,0,2.7-.8L81.6,30.3A5,5,0,0,0,80.8,32.3ZM37.7,58l9-8.9,8.7,8.8a5.6,5.6,0,0,0-.4,1.2H38.1A4.9,4.9,0,0,0,37.7,58Zm-1.1-1.6a4.9,4.9,0,0,0-3.3-1.3,5.2,5.2,0,0,0-2.8.9L10.9,36.4a5.1,5.1,0,0,0,.9-1.6H28.7a4.8,4.8,0,0,0,4.6,3.3,5.8,5.8,0,0,0,1.9-.4l10.1,10ZM33.3,12a5.1,5.1,0,0,0,3.1-1.1l8.9,8.9L36,29.1a5,5,0,0,0-2.7-.8,4.9,4.9,0,0,0-4.9,4.5H12.1a5.7,5.7,0,0,0-.7-2.2L30.8,11.3A5.2,5.2,0,0,0,33.3,12ZM55.6,9.5l-8.9,8.9-9.1-9a10.4,10.4,0,0,0,.4-1H55.1A3.7,3.7,0,0,0,55.6,9.5ZM36.2,33.2a2.9,2.9,0,0,1-2.9,2.9,3,3,0,1,1,0-5.9A2.9,2.9,0,0,1,36.2,33.2Zm.6,3.3a4.5,4.5,0,0,0,1.4-3.3,5,5,0,0,0-.8-2.7l9.3-9.3,9.1,9.1a4.8,4.8,0,0,0-.9,2.9,5.1,5.1,0,0,0,1.5,3.5l-9.7,9.7Zm20.1-3.3a2.9,2.9,0,1,1,2.9,2.9A2.9,2.9,0,0,1,56.9,33.2Zm2.9-29a2.9,2.9,0,1,1-2.9,2.9A2.9,2.9,0,0,1,59.8,4.2Zm-26.5,0a2.9,2.9,0,1,1,0,5.8,3,3,0,0,1-3-2.9A3,3,0,0,1,33.3,4.2Zm-29,29a2.9,2.9,0,0,1,2.9-3,3,3,0,1,1,0,5.9A2.9,2.9,0,0,1,4.3,33.2ZM33.3,63a3.1,3.1,0,0,1-3-3,3,3,0,0,1,3-2.9A2.9,2.9,0,0,1,36.2,60,3,3,0,0,1,33.3,63Zm26.5,0a3,3,0,0,1-2.9-3,2.9,2.9,0,0,1,5.8,0A3,3,0,0,1,59.8,63Zm2.9-6.9a4.8,4.8,0,0,0-2.9-1,5.3,5.3,0,0,0-3.2,1.2l-8.5-8.6,10-10a4.7,4.7,0,0,0,1.7.4,4.9,4.9,0,0,0,4.7-3.8H80.9a4.8,4.8,0,0,0,1.3,2.3Zm22.9-20a3,3,0,0,1,0-5.9,3,3,0,1,1,0,5.9Z"/></svg>