<svg id="a3258ae9-ea21-4c40-8f31-7a40c42e08ff" data-name="Capa 1" xmlns="http://www.w3.org/2000/svg" viewBox="0 0 13.4 17.2"><defs><style>.e0a869fb-efe3-40bd-8d3e-6801e1e24747{fill:#ccc;}</style></defs><title>Propuesta de Diseño</title><path class="e0a869fb-efe3-40bd-8d3e-6801e1e24747" d="M7.9,9.7H5.5A5.5,5.5,0,0,0,0,15.2v2H.7V15.3a4.9,4.9,0,0,1,4.9-4.9H7.8a4.9,4.9,0,0,1,4.9,4.9v1.9h.7v-2A5.5,5.5,0,0,0,7.9,9.7Z"/><path class="e0a869fb-efe3-40bd-8d3e-6801e1e24747" d="M7.7,8.1a4.2,4.2,0,0,0,2.9-2.9A4.2,4.2,0,0,0,5.5.1,3.9,3.9,0,0,0,2.7,3,4.1,4.1,0,0,0,7.7,8.1ZM7.3.8A3.2,3.2,0,0,1,9.9,3.4a3.4,3.4,0,0,1-4,4A3.2,3.2,0,0,1,3.3,4.8,3.4,3.4,0,0,1,7.3.8Z"/></svg>