<svg id="a1a9de0d-f666-44dc-a102-cbbe3ed39bdc" data-name="Capa 1" xmlns="http://www.w3.org/2000/svg" viewBox="0 0 41.4 41.4"><defs><style>.bbe790f7-d930-42b4-8040-1a46c2555949{fill:#ccc;}</style></defs><title>Propuesta de Diseño</title><path class="bbe790f7-d930-42b4-8040-1a46c2555949" d="M14.9,27.9l2.4-1.7,16.6-2.7a1.2,1.2,0,0,0,1-.9L38,13a1.7,1.7,0,0,0-.2-1.2,1.3,1.3,0,0,0-1.1-.5H9.8L7.4,7A3,3,0,0,0,8.5,4.8,2.8,2.8,0,0,0,5.7,2.1a2.7,2.7,0,0,0,0,5.4h.5l9.9,18-1.9,1.4a3.7,3.7,0,0,0-1.3,4.6c0,.1.1.2.2.3a3.9,3.9,0,0,0,.1,7.7,4,4,0,0,0,3.9-3.9,4.2,4.2,0,0,0-.6-1.9H29.9a4.1,4.1,0,0,0-.5,1.9,3.8,3.8,0,1,0,7.6,0,3.8,3.8,0,0,0-3.8-3.8,4.7,4.7,0,0,0-2.1.6H16.3A2.2,2.2,0,0,1,14,30.7,2.4,2.4,0,0,1,14.9,27.9ZM4.3,4.8A1.5,1.5,0,0,1,5.7,3.3,1.5,1.5,0,0,1,7.2,4.8,1.5,1.5,0,0,1,5.7,6.3,1.5,1.5,0,0,1,4.3,4.8Zm6.1,7.8H36.8l-3.1,9.7L17.2,24.9Zm25.3,23a2.6,2.6,0,0,1-2.5,2.6,2.6,2.6,0,0,1-2.6-2.6,2.6,2.6,0,0,1,2.6-2.5A2.5,2.5,0,0,1,35.7,35.6ZM13.2,38.2a2.6,2.6,0,0,1-2.5-2.6,2.5,2.5,0,0,1,2.5-2.5,2.6,2.6,0,0,1,2.6,2.5A2.6,2.6,0,0,1,13.2,38.2Z"/></svg>