<svg id="a4a3c8aa-07a9-465c-a5c5-c325dbe65a9d" data-name="Capa 1" xmlns="http://www.w3.org/2000/svg" viewBox="0 0 11.6 11.6"><defs><style>.ef9381aa-ca69-427a-9b7e-c1d1dffabfc8{fill:#636363;}</style></defs><title>Propuesta de Diseño</title><path class="ef9381aa-ca69-427a-9b7e-c1d1dffabfc8" d="M11.6,3.2A3.2,3.2,0,0,0,8.4,0H3.2A3.2,3.2,0,0,0,0,3.2V8.3a3.1,3.1,0,0,0,3,3.2H8.6a3,3,0,0,0,3-3.1ZM10.4,8.6a1.7,1.7,0,0,1-1.8,1.8H3a2.1,2.1,0,0,1-1.9-2,24.3,24.3,0,0,1,0-2.7h0a19.2,19.2,0,0,1,0-2.4c0-1.5.7-2.3,2.2-2.3a45.1,45.1,0,0,1,5.2,0c1.2.1,1.9.7,1.9,1.9A52.3,52.3,0,0,1,10.4,8.6Z"/><path class="ef9381aa-ca69-427a-9b7e-c1d1dffabfc8" d="M5.8,2.8a2.9,2.9,0,0,0-3,3,2.9,2.9,0,0,0,3,3,3.1,3.1,0,0,0,3-3A3.1,3.1,0,0,0,5.8,2.8Zm0,4.9A1.9,1.9,0,0,1,3.9,5.8,1.8,1.8,0,0,1,5.8,3.9,1.8,1.8,0,0,1,7.7,5.8,1.8,1.8,0,0,1,5.8,7.7Z"/><path class="ef9381aa-ca69-427a-9b7e-c1d1dffabfc8" d="M8.9,2a.7.7,0,0,0-.7.7.7.7,0,0,0,1.4,0A.7.7,0,0,0,8.9,2Z"/></svg>