<svg id="e29b6031-a39b-4fa1-81fd-8e9ad22838d4" data-name="Capa 1" xmlns="http://www.w3.org/2000/svg" viewBox="0 0 41.4 41.4"><defs><style>.a0b5977f-5467-4400-956b-2acadaec7c67{fill:#ccc;}</style></defs><title>Propuesta de Diseño</title><path class="a0b5977f-5467-4400-956b-2acadaec7c67" d="M23.4,23.3H18A12.7,12.7,0,0,0,5.3,35.9v4.6H6.9V36.2A11.4,11.4,0,0,1,18.2,24.9h5A11.3,11.3,0,0,1,34.4,36.2v4.3h1.7V35.9A12.7,12.7,0,0,0,23.4,23.3Z"/><path class="a0b5977f-5467-4400-956b-2acadaec7c67" d="M23.1,19.6A9.5,9.5,0,1,0,11.4,7.9,9.5,9.5,0,0,0,23.1,19.6Zm-1-16.8a7.9,7.9,0,0,1,6.1,6.1A7.8,7.8,0,0,1,19,18.1,7.7,7.7,0,0,1,12.9,12,7.8,7.8,0,0,1,22.1,2.8Z"/></svg>