<svg id="b6559652-b461-4d74-a68d-6069da65b674" data-name="Capa 1" xmlns="http://www.w3.org/2000/svg" viewBox="0 0 11.6 11.6"><defs><style>.e4c9dad4-f2c0-47fe-9938-0c3d715478df{fill:#c88787;}</style></defs><title>Propuesta de Diseño</title><path class="e4c9dad4-f2c0-47fe-9938-0c3d715478df" d="M5.8,0H8.4a3.2,3.2,0,0,1,3.2,3.2V8.4a3,3,0,0,1-3,3.1H3A3.1,3.1,0,0,1,0,8.3V3.2A3.2,3.2,0,0,1,3.2,0ZM1.1,5.8h0a24.3,24.3,0,0,0,0,2.7,2.1,2.1,0,0,0,1.9,2H8.6a1.7,1.7,0,0,0,1.8-1.8,52.3,52.3,0,0,0,0-5.6c0-1.2-.7-1.8-1.9-1.9a45.1,45.1,0,0,0-5.2,0c-1.5,0-2.2.8-2.2,2.3A19.2,19.2,0,0,0,1.1,5.8Z"/><path class="e4c9dad4-f2c0-47fe-9938-0c3d715478df" d="M2.8,5.8a2.9,2.9,0,0,1,3-3,3.1,3.1,0,0,1,3,3,3.1,3.1,0,0,1-3,3A2.9,2.9,0,0,1,2.8,5.8Zm3-1.9A1.8,1.8,0,0,0,3.9,5.8,1.9,1.9,0,0,0,5.8,7.7,1.8,1.8,0,0,0,7.7,5.8,1.8,1.8,0,0,0,5.8,3.9Z"/><path class="e4c9dad4-f2c0-47fe-9938-0c3d715478df" d="M9.6,2.7a.7.7,0,0,1-1.4,0,.7.7,0,0,1,1.4,0Z"/></svg>