<svg id="eecd4c5d-19a0-4a34-8dd4-20497845d3d0" data-name="Capa 1" xmlns="http://www.w3.org/2000/svg" viewBox="0 0 10.7 11.9"><defs><style>.b3e3dcb1-723f-4ab9-894a-7e886cc1c802{fill:#c88787;}</style></defs><title>Propuesta de Diseño</title><path class="b3e3dcb1-723f-4ab9-894a-7e886cc1c802" d="M5.4,5.3h4a1.3,1.3,0,0,1,1.3,1v4.3a1.2,1.2,0,0,1-1.2,1.3H1.2a1.3,1.3,0,0,1-1.2-1V6.6A1.2,1.2,0,0,1,.9,5.4H5.4ZM6,7.4H6V6H5.3v4.5H6.5c.3.1.5-.1.6-.4V7.6c0-.4-.4-.5-.7-.5S6.1,7.2,6,7.4ZM4.1,10.5h.7V7.2c0-.1,0-.1-.1-.1H4.2c-.1,0-.1,0-.1.1V9.8h0l-.3.2H3.6V7.2c0-.1,0-.1-.1-.1H3c-.1,0-.1,0-.1.1v3.2c.1.2.3.4.5.3h.2ZM7.7,8.9h0v1a.9.9,0,0,0,1.1.8,1,1,0,0,0,.7-.7V9.5H9.1c-.2,0-.2,0-.2.2v.3l-.2.2c-.2,0-.3-.1-.3-.2s-.1-.1-.1-.2V9H9.5V8.2a.9.9,0,0,0-.1-.5A.9.9,0,0,0,8,7.3a.9.9,0,0,0-.3.7Zm-6-2.3h0v3.9h.7V6.7h.7V6h-2v.5h.6Z"/><path class="b3e3dcb1-723f-4ab9-894a-7e886cc1c802" d="M8.3,4.7H7.7V4.3h0a.1.1,0,0,1-.1.1l-.4.3H6.9a.3.3,0,0,1-.3-.3.4.4,0,0,1-.1-.3V1.3h.6V3.8h0c.1.1.1.2.2.1a.5.5,0,0,0,.4-.2h0V1.3h.6Z"/><path class="b3e3dcb1-723f-4ab9-894a-7e886cc1c802" d="M3.8,0,3.6.6,3,2.9H3V4.7H2.4V3.1a4.3,4.3,0,0,1-.1-.5L1.6.1h.7l.3,1.6h.1c.1-.2.1-.4.2-.6L3.2.1h.6Z"/><path class="b3e3dcb1-723f-4ab9-894a-7e886cc1c802" d="M4.2,2.9a2.7,2.7,0,0,1,0-.9A.7.7,0,0,1,5,1.2a.7.7,0,0,1,.6.2c.3.2.3.4.3.7v2q-.2.6-.6.6a.8.8,0,0,1-.9-.3c-.2-.1-.2-.3-.2-.5v-1ZM5.3,3h0V2c0-.1,0-.2-.2-.2H5c-.2,0-.2.1-.2.2a7.6,7.6,0,0,0-.1,1.5.6.6,0,0,0,.1.4c0,.2.1.3.2.3h.2c.1,0,.1-.1.1-.2h0Z"/><path class="b3e3dcb1-723f-4ab9-894a-7e886cc1c802" d="M6,8.9v-1a.1.1,0,0,1,.1-.1h.2a.1.1,0,0,1,.1.1V9.8h0c0,.2-.1.2-.3.2V8.9Z"/><path class="b3e3dcb1-723f-4ab9-894a-7e886cc1c802" d="M8.8,8.3H8.4V7.8h.4v.5Z"/></svg>