<svg id="b20cf0bd-4dcd-4c7c-8744-d87ce831ec29" data-name="Capa 1" xmlns="http://www.w3.org/2000/svg" viewBox="0 0 101.2 69"><defs><style>.abd9d75a-05c6-4868-9888-debb10738cd8{fill:#981914;}</style></defs><title>Propuesta de Diseño</title><path class="abd9d75a-05c6-4868-9888-debb10738cd8" d="M14.1,25.8l-3,2.9,5.8,5.8,3-2.9a8.5,8.5,0,0,0,2.2.9v4.2h8.2V32.5a9.2,9.2,0,0,0,2.3-.9l2.9,2.9,5.8-5.8-2.9-2.9a10.9,10.9,0,0,0,.9-2.3h4.2V15.3H39.3a8.5,8.5,0,0,0-.9-2.2l2.9-3L35.5,4.3,32.6,7.2l-2.3-.9V2.1H22.1V6.3l-2.2.9-3-2.9-5.8,5.8,3,3a14.7,14.7,0,0,0-1,2.2H9v8.2h4.1A16,16,0,0,0,14.1,25.8Zm-3.2-8.5h3.7l.2-.8a12,12,0,0,1,1.3-3.1l.4-.7-2.6-2.6,3-3,2.6,2.6.7-.4A12,12,0,0,1,23.3,8l.8-.2V4.1h4.3V7.8l.7.2a12.7,12.7,0,0,1,3.2,1.3l.6.4,2.6-2.6,3.1,3-2.7,2.6.4.7a9.3,9.3,0,0,1,1.3,3.1l.2.8h3.8v4.3H37.8l-.2.7a8.5,8.5,0,0,1-1.3,3.1l-.4.7,2.7,2.6-3.1,3.1-2.6-2.7-.6.4a12.7,12.7,0,0,1-3.2,1.3l-.7.2v3.7H24.1V31l-.8-.2a12,12,0,0,1-3.1-1.3l-.7-.4-2.6,2.7-3-3.1,2.6-2.6-.4-.7a10.7,10.7,0,0,1-1.3-3.1l-.2-.7H10.9Z"/><path class="abd9d75a-05c6-4868-9888-debb10738cd8" d="M26.2,26.8a7.4,7.4,0,1,0-7.3-7.4A7.4,7.4,0,0,0,26.2,26.8Zm0-12.8a5.4,5.4,0,1,1,0,10.8,5.4,5.4,0,1,1,0-10.8Z"/><path class="abd9d75a-05c6-4868-9888-debb10738cd8" d="M36.1,39.3h-.8L30,56.2l-1.9-6.3a2.8,2.8,0,0,1,.4-2.5L30.9,44l-.4-.6a5.9,5.9,0,0,0-4.6-2.3h-.1a5.8,5.8,0,0,0-4.6,2.3l-.4.6,2.4,3.4a2.8,2.8,0,0,1,.5,2.5l-1.6,6-5-16.6h-.7A13.2,13.2,0,0,0,3.3,52.5V65.1H5.2V52.5A11.2,11.2,0,0,1,15.7,41.3l5.5,18.2.3.8H23l2.6-9.8a4.7,4.7,0,0,0-.8-4.1l-1.6-2.2a3.7,3.7,0,0,1,2.6-1h.1a3.5,3.5,0,0,1,2.5,1l-1.5,2.1a5,5,0,0,0-.7,4.3l2.7,9,.3.8h1.5l6.1-19A11.2,11.2,0,0,1,47.2,52.5V65.1h2V52.5A13.2,13.2,0,0,0,36.1,39.3Z"/></svg>