<svg id="fd483fe5-3436-4939-a5b2-9a246b12cd29" data-name="Capa 1" xmlns="http://www.w3.org/2000/svg" viewBox="0 0 12.2 10.2"><defs><style>.a48b0e47-6768-4a6d-ae26-a156c8752416{fill:#c88787;}</style></defs><title>Propuesta de Diseño</title><path class="a48b0e47-6768-4a6d-ae26-a156c8752416" d="M11.9.4,11,1.6l1.1-.3h.1l-.9.9a1,1,0,0,0-.3.8A7.2,7.2,0,0,1,.3,9.3L0,9.1A5.6,5.6,0,0,0,3.5,8,2.7,2.7,0,0,1,1.2,6.2h.9A2.8,2.8,0,0,1,.3,3.6l.9.3A2.9,2.9,0,0,1,.7.5,7.6,7.6,0,0,0,5.9,3.2V2.6A2.6,2.6,0,0,1,7.2.3,2.7,2.7,0,0,1,9.8.4a1,1,0,0,0,1.4.1l.6-.2Z"/></svg>