<svg id="a62f8470-390b-44ca-beb9-a8a5e6c68395" data-name="Capa 1" xmlns="http://www.w3.org/2000/svg" viewBox="0 0 101.2 69"><defs><style>.ed902624-c1ac-4005-b123-3d386551e82a{fill:#981914;}</style></defs><title>Propuesta de Diseño</title><path class="ed902624-c1ac-4005-b123-3d386551e82a" d="M80.7,2.2H9.4A6.3,6.3,0,0,0,3.2,8.5V58.6a6.3,6.3,0,0,0,6.2,6.3H80.7A6.3,6.3,0,0,0,87,58.6V8.5A6.3,6.3,0,0,0,80.7,2.2ZM85,58.6A4.4,4.4,0,0,1,80.7,63H9.4a4.4,4.4,0,0,1-4.3-4.4V8.5A4.3,4.3,0,0,1,9.4,4.2H80.7A4.3,4.3,0,0,1,85,8.5Z"/><rect class="ed902624-c1ac-4005-b123-3d386551e82a" x="5.5" y="52.6" width="79.2" height="1.96"/><path class="ed902624-c1ac-4005-b123-3d386551e82a" d="M30.3,21.4a5.7,5.7,0,0,0,5.5-4.7H70.1V14.8H35.8a5.7,5.7,0,0,0-5.5-4.6,5.5,5.5,0,0,0-5.5,4.6H18.4v1.9h6.4A5.5,5.5,0,0,0,30.3,21.4Zm0-9.3a3.7,3.7,0,0,1,3.6,3.7,3.6,3.6,0,0,1-3.6,3.6,3.7,3.7,0,0,1-3.7-3.6A3.8,3.8,0,0,1,30.3,12.1Z"/><path class="ed902624-c1ac-4005-b123-3d386551e82a" d="M57.1,33.4a5.5,5.5,0,0,0,5.5-4.6h7.5v-2H62.6a5.5,5.5,0,0,0-5.5-4.6,5.7,5.7,0,0,0-5.5,4.6H18.4v2H51.6A5.7,5.7,0,0,0,57.1,33.4Zm0-9.3a3.8,3.8,0,0,1,3.7,3.7,3.7,3.7,0,0,1-3.7,3.6,3.6,3.6,0,0,1-3.6-3.6A3.7,3.7,0,0,1,57.1,24.1Z"/><path class="ed902624-c1ac-4005-b123-3d386551e82a" d="M43.7,45.6A5.7,5.7,0,0,0,49.2,41H70.1V39H49.2a5.7,5.7,0,0,0-5.5-4.6A5.6,5.6,0,0,0,38.2,39H18.4v2H38.2A5.6,5.6,0,0,0,43.7,45.6Zm0-9.2A3.6,3.6,0,1,1,40.1,40,3.6,3.6,0,0,1,43.7,36.4Z"/></svg>