<svg id="ab0f5209-d1f1-4649-8abd-1a5f5ae3a460" data-name="Capa 1" xmlns="http://www.w3.org/2000/svg" viewBox="0 0 101.2 69"><defs><style>.eea84ee2-87ab-4298-b9ab-3aadffb42971{fill:#981914;}</style></defs><title>Propuesta de Diseño</title><path class="eea84ee2-87ab-4298-b9ab-3aadffb42971" d="M94.8,14.1H83.5v-7a5.8,5.8,0,0,0-5.8-5.8H12.4A5.8,5.8,0,0,0,6.6,7.1V53a5.8,5.8,0,0,0,5.8,5.9H72.8v1.6H4.7a3.4,3.4,0,0,0,0,6.7H94.8a4.7,4.7,0,0,0,4.6-4.6V18.7A4.7,4.7,0,0,0,94.8,14.1ZM12.4,56.9A3.9,3.9,0,0,1,8.5,53V7.1a3.9,3.9,0,0,1,3.9-3.8H77.7a3.8,3.8,0,0,1,3.8,3.8v7H78.8V5.8H11.3V54.4H72.8v2.5ZM72.8,18.7V52.4H13.2V7.8H76.8v6.4A4.5,4.5,0,0,0,72.8,18.7ZM3.3,63.8a1.4,1.4,0,0,1,1.4-1.4H72.8v.2a4.5,4.5,0,0,0,.8,2.6H4.7A1.4,1.4,0,0,1,3.3,63.8Zm94.1-1.2a2.5,2.5,0,0,1-2.6,2.6H77.4a2.6,2.6,0,0,1-2.7-2.6V18.7a2.7,2.7,0,0,1,2.7-2.6H94.8a2.6,2.6,0,0,1,2.6,2.6Z"/></svg>