<svg id="bd473bc7-7205-4f4d-81a4-662237c1cad9" data-name="Capa 1" xmlns="http://www.w3.org/2000/svg" viewBox="0 0 12.1 12.8"><defs><style>.a39fc331-2615-47e6-9965-f30ece45fd07{fill:#c88787;}</style></defs><title>Propuesta de Diseño</title><path class="a39fc331-2615-47e6-9965-f30ece45fd07" d="M11.6,9.9l-1.4,1.5V2.1A2.1,2.1,0,0,0,8.1,0H5.4A1.7,1.7,0,0,0,4.2.5L.5,4.2A1.7,1.7,0,0,0,0,5.4v5.4a2,2,0,0,0,2.1,2H5.3v-1H2.1a1,1,0,0,1-1.1-1v-5H3.1A2.7,2.7,0,0,0,5.8,3.1V1H8.1A1.1,1.1,0,0,1,9.2,2.1v9.3L7.8,9.9l-.5.5,2.1,2.3a.6.6,0,0,0,.6,0l2.1-2.3ZM3.1,4.8H1.2L4.8,1.2V3.1A1.6,1.6,0,0,1,3.1,4.8Z"/></svg>