<svg id="e087e18e-2653-416e-be53-c5839b6525ec" data-name="Capa 1" xmlns="http://www.w3.org/2000/svg" viewBox="0 0 10.1 10.2"><defs><style>.a031d7cc-1e14-4d58-a13c-b469ce3069b7{fill:#636363;}</style></defs><title>Propuesta de Diseño</title><path class="a031d7cc-1e14-4d58-a13c-b469ce3069b7" d="M7.5.6a5,5,0,0,0-5.8.8,4.9,4.9,0,0,0-1,5.7,1.1,1.1,0,0,1,0,.8C.5,8.7.3,9.3,0,10.2l2.4-.8h.7A4.8,4.8,0,0,0,6,9.8,4.9,4.9,0,0,0,7.5.6ZM5.9,9a3.5,3.5,0,0,1-2.5-.3,1.1,1.1,0,0,0-1.1-.1l-.9.3H1.2c.7-.9.3-1.7,0-2.6A4.1,4.1,0,0,1,4.1.9,4.3,4.3,0,0,1,9.3,4.2,4.2,4.2,0,0,1,5.9,9Z"/><path class="a031d7cc-1e14-4d58-a13c-b469ce3069b7" d="M7.1,5.8H7c-.4-.2-.7-.2-.9.2s-.4.3-.6.1L4.3,5a.5.5,0,0,1-.1-.8c.2-.1.1-.4.1-.5a1.4,1.4,0,0,0-.2-.6c-.2-.5-.7-.6-1-.1a1.2,1.2,0,0,0-.2,1.5A4.9,4.9,0,0,0,5.1,6.8a3.9,3.9,0,0,0,1.4.5l.6-.2a1.6,1.6,0,0,0,.6-.8Z"/></svg>