<svg id="e01614d1-5aa4-420f-a08f-e879c843b06c" data-name="Capa 1" xmlns="http://www.w3.org/2000/svg" viewBox="0 0 15.2 16.3"><defs><style>.b6c41cdb-841c-4965-9850-cb20eb30fcae{fill:#ccc;}</style></defs><title>Propuesta de Diseño</title><path class="b6c41cdb-841c-4965-9850-cb20eb30fcae" d="M14.7,4H2.9l-1-1.9a1.1,1.1,0,0,0,.5-.9A1.2,1.2,0,0,0,1.2,0,1.2,1.2,0,0,0,0,1.2,1.2,1.2,0,0,0,1.2,2.4h.2l4.3,7.9-.8.6a1.6,1.6,0,0,0-.6,2h.1a1.7,1.7,0,0,0-1.6,1.7,1.7,1.7,0,0,0,1.7,1.7,1.7,1.7,0,0,0,1.6-1.7,1.9,1.9,0,0,0-.2-.8h5.8a1.9,1.9,0,0,0-.2.8,1.7,1.7,0,0,0,1.6,1.7,1.7,1.7,0,1,0,0-3.4l-.9.3H5.8a1,1,0,0,1-1-.7,1,1,0,0,1,.4-1.2l1-.8,7.2-1.2a.7.7,0,0,0,.5-.4l1.3-4.1a.4.4,0,0,0-.1-.5C15,4.1,14.9,4,14.7,4ZM.6,1.2A.5.5,0,0,1,1.2.6a.6.6,0,0,1,.6.6.6.6,0,0,1-.6.6A.6.6,0,0,1,.6,1.2ZM14.2,14.6a1.1,1.1,0,1,1-1.1-1.1A1.1,1.1,0,0,1,14.2,14.6ZM4.5,15.7a1.1,1.1,0,1,1,0-2.2,1.1,1.1,0,1,1,0,2.2Zm8.8-6.9L6.2,9.9l-3-5.3H14.7Z"/></svg>