<svg id="Capa_1" data-name="Capa 1" xmlns="http://www.w3.org/2000/svg" viewBox="0 0 69.43 52.67"><defs><style>.cls-1{opacity:0.5;}.cls-2{fill:none;}.cls-2,.cls-3{stroke:#981914;stroke-miterlimit:10;stroke-width:0.85px;}.cls-3{fill:#fff;}.cls-4{fill:#981914;}</style></defs><title>Propuesta de Diseño</title><g class="cls-1"><polyline class="cls-2" points="15.52 15.68 15.52 38.18 35 49.59 54.49 38.18 54.49 15.68"/><path class="cls-3" d="M54.43,15.71l-18.78,11a1.31,1.31,0,0,1-1.3,0l-18.78-11a0,0,0,0,1,0-.06L34.21,4.73a1.61,1.61,0,0,1,1.59,0L54.43,15.65A0,0,0,0,1,54.43,15.71Z"/><line class="cls-2" x1="35" y1="26.44" x2="35" y2="49.59"/><polygon class="cls-4" points="65.69 29.7 65.11 29.08 68.18 26.23 65.11 23.37 65.69 22.75 69.43 26.23 65.69 29.7"/><polygon class="cls-4" points="55.69 5.1 54.84 5.07 54.99 0.88 50.8 1.04 50.77 0.19 55.87 0 55.69 5.1"/><polygon class="cls-4" points="51.43 52.49 51.46 51.64 55.65 51.79 55.5 47.6 56.35 47.57 56.53 52.67 51.43 52.49"/><polygon class="cls-4" points="3.74 22.97 4.32 23.59 1.25 26.45 4.32 29.3 3.74 29.93 0 26.45 3.74 22.97"/><polygon class="cls-4" points="13.74 47.57 14.59 47.6 14.44 51.79 18.63 51.64 18.66 52.49 13.56 52.67 13.74 47.57"/><polygon class="cls-4" points="18 0.19 17.97 1.04 13.78 0.88 13.93 5.07 13.08 5.1 12.9 0 18 0.19"/></g></svg>