<svg id="Capa_1" data-name="Capa 1" xmlns="http://www.w3.org/2000/svg" viewBox="0 0 15.25 16.26"><defs><style>.cls-1{opacity:0.6;}.cls-2{fill:#ccc;}</style></defs><title>Propuesta de Diseño</title><g class="cls-1"><path class="cls-2" d="M12.37,13.76H5.9a1.89,1.89,0,0,1-1.6-1,1.62,1.62,0,0,1,.55-2l.84-.59L1.24,2.06l.49-.26L6.4,10.37l-1.23.88a1.08,1.08,0,0,0,.63,2h6.57Z"/><path class="cls-2" d="M4.45,16.26A1.66,1.66,0,1,1,6.11,14.6,1.66,1.66,0,0,1,4.45,16.26Zm0-2.77A1.11,1.11,0,1,0,5.56,14.6,1.11,1.11,0,0,0,4.45,13.49Z"/><path class="cls-2" d="M1.19,2.38A1.19,1.19,0,1,1,2.38,1.19,1.19,1.19,0,0,1,1.19,2.38Zm0-1.83a.64.64,0,1,0,.64.64A.64.64,0,0,0,1.19.55Z"/><path class="cls-2" d="M13.13,16.26a1.66,1.66,0,1,1,1.66-1.66A1.67,1.67,0,0,1,13.13,16.26Zm0-2.77a1.11,1.11,0,1,0,1.11,1.11A1.11,1.11,0,0,0,13.13,13.49Z"/><path class="cls-2" d="M6.09,10.52,6,10l7.34-1.19L14.69,4.6l-11.94,0V4H14.67a.58.58,0,0,1,.47.23.63.63,0,0,1,.08.52L13.88,8.93a.56.56,0,0,1-.46.39Z"/></g></svg>