<svg id="Capa_1" data-name="Capa 1" xmlns="http://www.w3.org/2000/svg" viewBox="0 0 11.6 11.6"><defs><style>.cls-1{fill:#636363;}</style></defs><title>Propuesta de Diseño</title><path class="cls-1" d="M5.8,0c.86,0,1.71,0,2.57,0A3.12,3.12,0,0,1,11.56,3.2c.06,1.72.06,3.46,0,5.19a3,3,0,0,1-3,3.12,47,47,0,0,1-5.57,0,3,3,0,0,1-3-3.2C0,6.61,0,4.89,0,3.18A3.09,3.09,0,0,1,3.18,0C4.05,0,4.93,0,5.8,0ZM1.08,5.79h0c0,.89-.05,1.79,0,2.67a2,2,0,0,0,1.87,2,4.87,4.87,0,0,0,.76.06c1.64,0,3.28,0,4.91-.09a1.81,1.81,0,0,0,1.8-1.88c.07-1.83.08-3.68,0-5.52a1.87,1.87,0,0,0-2-1.92C6.75,1,5,1,3.29,1.09A2.07,2.07,0,0,0,1.08,3.36C1.05,4.17,1.08,5,1.08,5.79Z"/><path class="cls-1" d="M2.8,5.79a3,3,0,1,1,3,3A3,3,0,0,1,2.8,5.79Zm3-1.93A1.93,1.93,0,1,0,7.72,5.75,1.93,1.93,0,0,0,5.8,3.86Z"/><path class="cls-1" d="M9.58,2.66a.68.68,0,0,1-.66.72.7.7,0,0,1-.73-.71A.75.75,0,0,1,8.89,2,.71.71,0,0,1,9.58,2.66Z"/></svg>