<svg id="Capa_1" data-name="Capa 1" xmlns="http://www.w3.org/2000/svg" viewBox="0 0 12.16 10.18"><defs><style>.cls-1{fill:#636363;}</style></defs><title>Propuesta de Diseño</title><path class="cls-1" d="M11.88.42,11,1.6l1.06-.27.07.07a8.33,8.33,0,0,1-.82.86.94.94,0,0,0-.37.81A7.23,7.23,0,0,1,.31,9.3,1,1,0,0,1,0,9.06,5.42,5.42,0,0,0,3.52,8a2.65,2.65,0,0,1-2.3-1.75l.86,0A2.88,2.88,0,0,1,.3,3.65l.87.23A2.9,2.9,0,0,1,.67.51a7.4,7.4,0,0,0,5.2,2.66v-.6A2.45,2.45,0,0,1,7.24.33,2.25,2.25,0,0,1,9.76.45a1.29,1.29,0,0,0,1.48.1l.52-.24Z"/></svg>