<svg id="Capa_1" data-name="Capa 1" xmlns="http://www.w3.org/2000/svg" viewBox="0 0 10.14 10.16"><defs><style>.cls-1{fill:#c88787;}</style></defs><title>Propuesta de Diseño</title><path class="cls-1" d="M0,10.16c.27-.81.53-1.51.73-2.22a1.19,1.19,0,0,0,0-.79,5,5,0,0,1,1-5.72A5,5,0,0,1,7.47.56,4.94,4.94,0,0,1,6,9.83a5.09,5.09,0,0,1-2.93-.37,1,1,0,0,0-.67,0C1.64,9.63.89,9.88,0,10.16ZM1.23,8.83l.14.05c.29-.1.6-.16.89-.28a1.16,1.16,0,0,1,1.11.08A3.84,3.84,0,0,0,5.87,9a4.15,4.15,0,0,0,3.4-4.86A4.19,4.19,0,0,0,4.11.93a4.09,4.09,0,0,0-2.9,5.24C1.53,7.08,1.93,7.9,1.23,8.83Z"/><path class="cls-1" d="M6.47,7.34a13.65,13.65,0,0,1-1.35-.49A4.85,4.85,0,0,1,2.88,4.47,1.32,1.32,0,0,1,3.06,3a.56.56,0,0,1,1,.13,3.4,3.4,0,0,1,.23.57.79.79,0,0,1-.07.56.49.49,0,0,0,0,.81c.39.35.8.67,1.21,1a.39.39,0,0,0,.63-.14c.22-.41.51-.4.86-.17,0,0,.12,0,.16.08.19.16.56.38.53.49a2.07,2.07,0,0,1-.53.82C7,7.24,6.73,7.25,6.47,7.34Z"/></svg>