<svg id="Capa_1" data-name="Capa 1" xmlns="http://www.w3.org/2000/svg" viewBox="0 0 86.13 57.6"><defs><style>.cls-1{opacity:0.5;}.cls-2{fill:none;stroke:#981914;stroke-miterlimit:10;stroke-width:0.85px;}</style></defs><title>Propuesta de Diseño</title><g class="cls-1"><path class="cls-2" d="M63.93,49.78H9.37a4.29,4.29,0,0,1-4.3-4.3V4.72A4.29,4.29,0,0,1,9.37.43h57.9a4.29,4.29,0,0,1,4.3,4.29v7.13"/><polyline class="cls-2" points="63.89 45.78 9.23 45.78 9.23 4.42 67.41 4.42 67.41 11.84"/><rect class="cls-2" x="63.83" y="11.8" width="21.88" height="45.38" rx="3.2"/><path class="cls-2" d="M68.85,57.18H2.54A2.11,2.11,0,0,1,.43,55.06h0A2.11,2.11,0,0,1,2.54,53H63.77"/></g></svg>