<svg id="Capa_1" data-name="Capa 1" xmlns="http://www.w3.org/2000/svg" viewBox="0 0 73.63 54.86"><defs><style>.cls-1{opacity:0.5;}.cls-2{fill:none;stroke:#981914;stroke-miterlimit:10;stroke-width:0.85px;}</style></defs><title>Propuesta de Diseño</title><g class="cls-1"><rect class="cls-2" x="0.43" y="0.43" width="72.78" height="54.01" rx="4.7"/><line class="cls-2" x1="1.62" y1="45.19" x2="72.01" y2="45.19"/><path class="cls-2" d="M50.78,25.15V19.79H47.4a10.66,10.66,0,0,0-1.21-2.91l2.39-2.39L44.79,10.7l-2.38,2.39a11,11,0,0,0-2.92-1.2V8.51H34.14v3.38a11,11,0,0,0-2.92,1.2L28.83,10.7l-3.78,3.79,2.38,2.39a11,11,0,0,0-1.2,2.91H22.85v5.36h3.38a10.82,10.82,0,0,0,1.2,2.91l-2.38,2.39,3.78,3.79,2.39-2.39a11,11,0,0,0,2.92,1.21v3.37h5.35V33.06a11,11,0,0,0,2.92-1.21l2.38,2.39,3.79-3.79-2.39-2.39a10.53,10.53,0,0,0,1.21-2.91Zm-14,2.78a5.46,5.46,0,1,1,5.46-5.46A5.45,5.45,0,0,1,36.81,27.93Z"/></g></svg>