<svg id="Capa_1" data-name="Capa 1" xmlns="http://www.w3.org/2000/svg" viewBox="0 0 39.9 55.44"><defs><style>.cls-1{opacity:0.5;}.cls-2{fill:none;stroke:#981914;stroke-miterlimit:10;stroke-width:0.85px;}</style></defs><title>Propuesta de Diseño</title><g class="cls-1"><path class="cls-2" d="M34.42,17.67V12.12h-3.5a11.32,11.32,0,0,0-1.25-3l2.47-2.47L28.22,2.7,25.74,5.18a11,11,0,0,0-3-1.25V.43H17.17v3.5a10.94,10.94,0,0,0-3,1.25L11.68,2.7,7.76,6.63,10.23,9.1a11.32,11.32,0,0,0-1.25,3H5.48v5.55H9a11.32,11.32,0,0,0,1.25,3L7.76,23.16l3.92,3.93,2.47-2.48a11.14,11.14,0,0,0,3,1.25v3.5h5.55v-3.5a11,11,0,0,0,3-1.25l2.48,2.48,3.92-3.93-2.47-2.47a11.32,11.32,0,0,0,1.25-3ZM20,20.55a5.66,5.66,0,1,1,5.65-5.66A5.66,5.66,0,0,1,20,20.55Z"/><path class="cls-2" d="M39.47,55.44V44.24a10.83,10.83,0,0,0-10.8-10.8L23.31,50.28a.08.08,0,0,1-.15,0l-2.42-8.07a3.46,3.46,0,0,1,.51-3L23,36.73h0a4.27,4.27,0,0,0-6.8,0l0,0L18,39.25a3.46,3.46,0,0,1,.55,2.91l-2.13,8.09a.07.07,0,0,1-.14,0L11.23,33.44A10.83,10.83,0,0,0,.43,44.24v11.2"/></g></svg>