<svg id="Capa_1" data-name="Capa 1" xmlns="http://www.w3.org/2000/svg" viewBox="0 0 10.68 11.87"><defs><style>.cls-1{fill:#c88787;}</style></defs><title>Propuesta de Diseño</title><path class="cls-1" d="M5.36,5.34H9.44a1.21,1.21,0,0,1,1.22,1,1.23,1.23,0,0,1,0,.27v4.07a1.19,1.19,0,0,1-1.21,1.22H1.2A1.18,1.18,0,0,1,0,10.92a1.09,1.09,0,0,1,0-.26V6.56A1.18,1.18,0,0,1,.93,5.37a1.73,1.73,0,0,1,.32,0Zm.64,2V6a.07.07,0,0,0-.08-.08H5.36c-.06,0-.09,0-.09.08v4.55c0,.08,0,.11.09.11h.56A.08.08,0,0,0,6,10.61v-.07l0,0a.94.94,0,0,0,.42.16.55.55,0,0,0,.61-.4.9.9,0,0,0,0-.28V8c0-.13,0-.27,0-.4a.55.55,0,0,0-.68-.42A1.14,1.14,0,0,0,6,7.36ZM4.08,10.45v.13c0,.08,0,.1.1.1h.54c.07,0,.09,0,.09-.1s0-.29,0-.43V7.24c0-.1,0-.12-.12-.12H4.18c-.08,0-.1,0-.1.1V9.75a.12.12,0,0,1,0,.07c-.1.06-.19.13-.29.18s-.12,0-.13-.09a.57.57,0,0,1,0-.13V7.23c0-.09,0-.11-.11-.11H3c-.12,0-.13,0-.13.13V10a1.84,1.84,0,0,0,0,.33.44.44,0,0,0,.49.36.41.41,0,0,0,.19-.05ZM7.69,8.91h0v.65c0,.12,0,.23,0,.35a.89.89,0,0,0,1.07.76.85.85,0,0,0,.7-.67,4,4,0,0,0,0-.49c0-.08,0-.1-.1-.1H9.05c-.15,0-.14,0-.15.16a1.51,1.51,0,0,1,0,.3.27.27,0,0,1-.23.2.24.24,0,0,1-.27-.14.3.3,0,0,1-.06-.18c0-.24,0-.47,0-.7,0-.06,0-.08.08-.08h1c.1,0,.12,0,.12-.12s0-.45,0-.68a2.13,2.13,0,0,0-.07-.44A.89.89,0,0,0,7.69,8C7.68,8.32,7.69,8.61,7.69,8.91Zm-6-2.3v.06c0,.49,0,1,0,1.45,0,.81,0,1.63,0,2.44,0,.12,0,.13.14.13H2.3c.13,0,.14,0,.14-.14V6.61H3c.08,0,.1,0,.1-.1V6c0-.07,0-.09-.09-.09H1.16c-.08,0-.1,0-.1.09v.48c0,.08,0,.1.1.1h.55Z"/><path class="cls-1" d="M8.3,4.75H7.69v-.4h0l0,0a1,1,0,0,1-.46.32.93.93,0,0,1-.23,0,.4.4,0,0,1-.38-.37c0-.11,0-.21,0-.32V1.19h.59v2.6a.53.53,0,0,0,0,.13c0,.11.11.17.2.12a2.74,2.74,0,0,0,.36-.23s0-.05,0-.08V1.26s0,0,0-.07H8.3Z"/><path class="cls-1" d="M3.83,0,3.65.62,3,2.89A.77.77,0,0,0,3,3v1.7h-.6V4.67c0-.51,0-1,0-1.52a1.84,1.84,0,0,0-.1-.52L1.59.08a.24.24,0,0,0,0-.08h.6c.06,0,.08,0,.09.08l.39,1.66a.19.19,0,0,0,0,.07s0,0,0,.05,0,0,0-.05c.06-.2.11-.41.16-.62C3,.82,3.08.44,3.17.07c0,0,0-.07.09-.07Z"/><path class="cls-1" d="M4.16,2.94c0-.31,0-.62,0-.93A.81.81,0,0,1,5,1.19a1,1,0,0,1,.69.2.89.89,0,0,1,.28.68c0,.23,0,.45,0,.68s0,.68,0,1a2,2,0,0,1,0,.34.77.77,0,0,1-.64.6.87.87,0,0,1-.91-.28.83.83,0,0,1-.19-.54c0-.32,0-.64,0-1ZM5.35,3h0V2.05a.24.24,0,0,0-.24-.27H5c-.18,0-.26.09-.26.27V3.47c0,.14,0,.28,0,.43A.25.25,0,0,0,5,4.16l.12,0a.23.23,0,0,0,.18-.2s0-.07,0-.1Z"/><path class="cls-1" d="M6,8.92v-1s0-.09.06-.1l.18,0a.16.16,0,0,1,.17.14.76.76,0,0,1,0,.15c0,.59,0,1.17,0,1.76a.06.06,0,0,1,0,0c0,.19-.14.27-.31.18S6,10,6,9.88c0-.32,0-.64,0-1Z"/><path class="cls-1" d="M8.84,8.3H8.37a1.47,1.47,0,0,1,0-.47c0-.09.11-.11.2-.11a.19.19,0,0,1,.2.12.4.4,0,0,1,0,.15Z"/></svg>