<svg id="Capa_1" data-name="Capa 1" xmlns="http://www.w3.org/2000/svg" viewBox="0 0 13.36 17.16"><defs><style>.cls-1{opacity:0.6;}.cls-2{fill:#ccc;}</style></defs><title>Propuesta de Diseño</title><g class="cls-1"><path class="cls-2" d="M13.36,17.16h-.7V15.28a4.9,4.9,0,0,0-4.9-4.9H5.6a4.91,4.91,0,0,0-4.9,4.9v1.88H0v-2A5.49,5.49,0,0,1,5.49,9.68H7.87a5.49,5.49,0,0,1,5.49,5.49Z"/><path class="cls-2" d="M7.72,8.05A4.11,4.11,0,0,1,2.66,3,4,4,0,0,1,5.5.15a4.11,4.11,0,0,1,5.06,5.06A4,4,0,0,1,7.72,8.05ZM7.28.77A3.4,3.4,0,1,0,9.94,3.43,3.4,3.4,0,0,0,7.28.77Z"/></g></svg>