<svg id="Capa_1" data-name="Capa 1" xmlns="http://www.w3.org/2000/svg" viewBox="0 0 74.05 55.18"><defs><style>.cls-1{opacity:0.5;}.cls-2{fill:none;}.cls-2,.cls-3{stroke:#981914;stroke-miterlimit:10;stroke-width:0.85px;}.cls-3{fill:#fff;}</style></defs><title>Propuesta de Diseño</title><g class="cls-1"><rect class="cls-2" x="0.43" y="0.43" width="73.2" height="54.33" rx="4.73"/><line class="cls-2" x1="1.63" y1="45.45" x2="72.43" y2="45.45"/><polyline class="cls-2" points="23.39 15.4 23.39 31.14 37.03 39.13 50.66 31.14 50.66 15.4"/><path class="cls-3" d="M50.62,15.42l-13.14,7.7a.92.92,0,0,1-.91,0l-13.14-7.7a0,0,0,0,1,0,0l13-7.64a1.1,1.1,0,0,1,1.11,0l13,7.64A0,0,0,0,1,50.62,15.42Z"/><line class="cls-2" x1="37.03" y1="22.93" x2="37.03" y2="39.13"/></g></svg>